# xmcd
#
# Track frame offsets:
#	150
#	9851
#	21000
#	33071
#	43310
#	52527
#	62656
#	73990
#	86154
#	96275
#	106042
#	118893
#	131260
#	142134
#	152020
#	162919
#	173593
#	182047
#	200924
#	212333
#	223302
#	232118
#	247407
#	256016
#	265395
#	274927
#	286398
#	295285
#	305559
#	320610
#	329051
#	337328
#	343799
#	349146
#
# Disc length: 4790 seconds
#
# Revision: 0
# Processed by: cddbd v1.5.2PL0 Copyright (c) Steve Scherf et al.
# Submitted via: EasyCDDAExtractor 8.2.3.1
#
DISCID=1d12b422
DTITLE=ELVIS PRESLEY - The King Of Rock'n'Roll  CD-2
DYEAR=2005
DGENRE=Blues
TTITLE0=Lawdy, Miss Clawdy
TTITLE1=Shake, Rattle and Roll
TTITLE2=I Want You, I Need You, I Love You
TTITLE3=Hound Dog
TTITLE4=Don't Be Cruel
TTITLE5=Any Way You Want Me (That's How I Will Be)
TTITLE6=We're Gonna Move
TTITLE7=Love Me Tender
TTITLE8=Poor Boy
TTITLE9=Let Me
TTITLE10=Playing for Keeps
TTITLE11=Love Me
TTITLE12=Paralyzed
TTITLE13=How Do You Think I Feel
TTITLE14=How's the World Treating You
TTITLE15=When My Blue Moon Turns to Gold Again
TTITLE16=Long Tall Sally
TTITLE17=Old Shep
TTITLE18=Too Much
TTITLE19=Anyplace Is Paradise
TTITLE20=Ready Teddy
TTITLE21=First in Line
TTITLE22=Rip It Up
TTITLE23=I Believe
TTITLE24=Tell Me Why
TTITLE25=Got a Lot O'Livin' to Do!
TTITLE26=All Shook Up
TTITLE27=Mean Woman Blues
TTITLE28=(There'll Be) Peace in the Valley for Me
TTITLE29=I Beg of You
TTITLE30=Loving You (Slow Version)
TTITLE31=Loving You (Up Tempo)
TTITLE32=Young and Beautiful
TTITLE33=Milky White Way
EXTD=
EXTT0=
EXTT1=
EXTT2=
EXTT3=
EXTT4=
EXTT5=
EXTT6=
EXTT7=
EXTT8=
EXTT9=
EXTT10=
EXTT11=
EXTT12=
EXTT13=
EXTT14=
EXTT15=
EXTT16=
EXTT17=
EXTT18=
EXTT19=
EXTT20=
EXTT21=
EXTT22=
EXTT23=
EXTT24=
EXTT25=
EXTT26=
EXTT27=
EXTT28=
EXTT29=
EXTT30=
EXTT31=
EXTT32=
EXTT33=
PLAYORDER=
